<?xml version="1.0" encoding="utf-8"?>
<!-- Generator: Adobe Illustrator 21.0.2, SVG Export Plug-In . SVG Version: 6.00 Build 0)  -->
<svg version="1.1" id="Layer_1" xmlns="http://www.w3.org/2000/svg" xmlns:xlink="http://www.w3.org/1999/xlink" x="0px" y="0px"
	 viewBox="0 0 61.4 11.2" style="enable-background:new 0 0 61.4 11.2;" xml:space="preserve">
<style type="text/css">
	.st0{clip-path:url(#SVGID_2_);fill:#2C104C;}
</style>
<g>
	<defs>
		<rect id="SVGID_1_" y="0" width="61.4" height="11.2"/>
	</defs>
	<clipPath id="SVGID_2_">
		<use xlink:href="#SVGID_1_"  style="overflow:visible;"/>
	</clipPath>
	<path class="st0" d="M35.9,8.3c0,1-0.2,1.7-1,1.7c-0.2,0-0.5,0-0.8-0.1L33.9,11c0.3,0.1,0.7,0.2,1,0.2c1.8,0,2.4-1.1,2.4-2.6V0
		l-1.3,0.4V8.3z"/>
	<path class="st0" d="M41.2,7.9c-1,0-1.6-0.9-1.6-2.1c0-1.3,0.5-2.1,1.6-2.1c1,0,1.6,0.8,1.6,2.1C42.8,7,42.2,7.9,41.2,7.9
		 M43.3,3.5c-0.5-0.6-1.2-0.9-2.1-0.9c-0.8,0-1.6,0.3-2.1,0.9c-0.6,0.6-0.9,1.4-0.9,2.4c0,1,0.3,1.8,0.9,2.4c0.5,0.5,1.2,0.7,2,0.7
		c0.9,0,1.6-0.3,2.1-0.8c0.6-0.6,0.9-1.4,0.9-2.4C44.1,4.8,43.8,4,43.3,3.5"/>
	<path class="st0" d="M6.4,7.2c-0.6,0.3-1.3,0.6-2,0.6c-1.8,0-2.9-1.4-2.9-3.2c0-1.7,1.1-3.2,3-3.2C5.3,1.4,6,1.6,6.6,2V0.7
		C6.2,0.5,5.4,0.3,4.5,0.3C1.8,0.3,0,2.2,0,4.7C0,7.1,1.6,9,4.2,9c0.7,0,1.5-0.2,2.2-0.5V7.2z"/>
	<path class="st0" d="M20.8,7.5c-0.2,0.2-0.6,0.4-1,0.4c-0.4,0-0.6-0.2-0.6-0.7V3.8h1.5v-1h-1.5V1.2l-1.3,0.4v1.1v1v3.8
		c0,0.8,0.4,1.4,1.4,1.4c0.5,0,1-0.1,1.5-0.4V7.5z"/>
	<path class="st0" d="M48.6,2.6c-0.8,0-1.4,0.3-2.1,0.8V2.7l-1.3,0.4v0v5.8h1.3h0V4.5c0.5-0.4,1.1-0.7,1.7-0.7
		c0.8,0,0.9,0.7,0.9,1.4v3.7h1.3V4.8C50.4,3.2,49.5,2.6,48.6,2.6"/>
	<path class="st0" d="M58.6,4.3c0-0.4,0.4-0.6,1-0.6c0.7,0,1.2,0.2,1.6,0.4V2.9c-0.4-0.2-1-0.3-1.7-0.3c-1.4,0-2.2,0.7-2.2,1.7
		c0,2.1,2.8,1.7,2.8,2.9c0,0.5-0.4,0.7-1.1,0.7c-0.6,0-1.2-0.2-1.6-0.5v1.2C57.8,8.9,58.3,9,59,9c1.3,0,2.4-0.5,2.4-1.9
		C61.4,5,58.6,5.4,58.6,4.3"/>
	<path class="st0" d="M53.7,7.9c-0.7,0-1.1-0.4-1.1-0.9C52.7,6.4,53,6.1,54,6l1,0v0.4h0v1C54.7,7.6,54.3,7.9,53.7,7.9 M56.3,6.4V4.8
		c0-1.6-0.9-2.2-2.3-2.2c-0.6,0-1.2,0.1-1.8,0.4v1.1c0.4-0.2,0.9-0.5,1.6-0.5C54.4,3.7,55,4,55,4.8V5l-1.1,0c-1.6,0.1-2.5,0.8-2.5,2
		c0,1.2,0.9,1.9,1.9,1.9c0.8,0,1.3-0.3,1.7-0.6v0.5h1.4V6.4z"/>
	<path class="st0" d="M9.7,7.9C9,7.9,8.7,7.5,8.7,6.9C8.7,6.4,9.1,6.1,10,6l1,0v0.4h0v1C10.7,7.6,10.3,7.9,9.7,7.9 M12.3,6.4V4.8
		c0-1.6-0.9-2.2-2.3-2.2C9.4,2.6,8.8,2.7,8.2,3v1.1c0.4-0.2,0.9-0.5,1.6-0.5C10.4,3.7,11,4,11,4.8V5L9.8,5c-1.6,0.1-2.5,0.8-2.5,2
		C7.3,8.2,8.2,9,9.3,9c0.8,0,1.3-0.3,1.7-0.6v0.5h1.4V6.4z"/>
	<path class="st0" d="M24.3,3.6c0.8,0,1.2,0.8,1.3,1.5h-2.5C23.1,4.4,23.5,3.6,24.3,3.6 M26.4,7.4c-0.5,0.3-1,0.4-1.5,0.4
		c-1.1,0-1.8-0.7-1.8-1.8H27V5.7c0-1.9-1-3.2-2.6-3.2c-1.6,0-2.7,1.4-2.7,3.2c0,1.7,0.9,3.2,3,3.2c0.6,0,1.2-0.1,1.8-0.4V7.4z"/>
	<path class="st0" d="M16.8,2.6c-0.1,0-0.2,0-0.3,0c-0.5,0-1,0.1-1.6,0.8V2.5l-1.3,0.4v6h1.3V4.4c0.4-0.4,0.9-0.6,1.2-0.6
		c0.2,0,0.5,0.1,0.7,0.2V2.6z"/>
	<path class="st0" d="M31.2,2.6c-0.1,0-0.2,0-0.3,0c-0.5,0-1,0.1-1.6,0.8V2.5l-1.3,0.4v6h1.3V4.4c0.4-0.4,0.9-0.6,1.2-0.6
		c0.2,0,0.5,0.1,0.7,0.2V2.6z"/>
</g>
</svg>
