<?xml version="1.0" encoding="utf-8"?>
<!-- Generator: Adobe Illustrator 21.0.2, SVG Export Plug-In . SVG Version: 6.00 Build 0)  -->
<svg version="1.1" id="Layer_1" xmlns="http://www.w3.org/2000/svg" xmlns:xlink="http://www.w3.org/1999/xlink" x="0px" y="0px"
	 viewBox="0 0 259.7 285.9" style="enable-background:new 0 0 259.7 285.9;" xml:space="preserve">
<style type="text/css">
	.st0{fill:#F0B3CA;}
	.st1{fill:#211646;}
</style>
<g>
	<rect x="0.2" class="st0" width="259.3" height="285.9"/>
</g>
<g>
	<path class="st1" d="M35.3,214.8h-0.8c-1.4,0-2.4-0.2-2.9-0.6c-0.5-0.4-0.8-1-1-1.7c-0.1-0.8-0.2-2.4-0.2-5v-7.7h16.7v7.7
		c0,2.7-0.1,4.4-0.2,5.1c-0.1,0.7-0.5,1.3-1,1.6c-0.5,0.3-1.5,0.5-2.8,0.5H42v1.1h14.6v-1.1h-0.7c-1.4,0-2.4-0.2-2.9-0.6
		c-0.5-0.4-0.8-1-1-1.7c-0.1-0.8-0.2-2.4-0.2-5v-15.7c0-2.7,0.1-4.4,0.2-5.1c0.2-0.7,0.5-1.2,1-1.5c0.5-0.3,1.5-0.4,3.1-0.4h0.5
		v-1.1H42v1.1h0.9c1.6,0,2.7,0.1,3.2,0.4c0.5,0.3,0.8,0.8,0.9,1.5c0.1,0.7,0.2,2.4,0.2,4.9v6.4H30.4v-6.4c0-2.7,0.1-4.4,0.2-5.1
		c0.2-0.7,0.5-1.2,1-1.5c0.5-0.3,1.5-0.4,3.1-0.4h0.6v-1.1H20.9v1.1h0.6c1.6,0,2.7,0.1,3.2,0.4c0.5,0.3,0.8,0.8,0.9,1.5
		c0.1,0.7,0.2,2.4,0.2,4.9v15.7c0,2.7-0.1,4.4-0.2,5.1c-0.2,0.7-0.5,1.3-1,1.6c-0.5,0.3-1.5,0.5-2.9,0.5h-0.8v1.1h14.5V214.8z"/>
	<path class="st1" d="M89,212.3c1-1.3,1.6-2.6,1.8-3.9c0.2-1.3,0.3-3.4,0.3-6.1v-10.7c0-2,0.1-3.3,0.2-4c0.2-0.7,0.6-1.3,1.3-1.8
		c0.7-0.5,1.8-0.9,3.2-1v-1.1H85.1v1.1c1.5,0.1,2.5,0.4,3.2,0.8c0.7,0.4,1.1,1,1.3,1.7c0.2,0.7,0.3,2,0.3,3.8v10.9
		c0,2.5-0.1,4.3-0.3,5.5c-0.2,1.2-0.7,2.3-1.4,3.4c-0.8,1.1-2,2-3.6,2.7c-1.6,0.7-3.4,1.1-5.3,1.1c-2.5,0-4.5-0.5-6-1.6
		c-1.5-1.1-2.4-2.4-2.7-3.8c-0.3-1.5-0.5-3.9-0.5-7.5v-10.1c0-2.7,0.1-4.4,0.2-5.1c0.2-0.7,0.5-1.2,1-1.5c0.5-0.3,1.5-0.4,3.1-0.4
		h0.6v-1.1H60.5v1.1h0.7c1.6,0,2.7,0.1,3.2,0.4c0.5,0.3,0.8,0.8,0.9,1.5c0.1,0.7,0.2,2.4,0.2,4.9v10v3.3c0,2.6,0.4,4.6,1.3,6.2
		c0.8,1.5,2.3,2.8,4.2,3.8c2,1,4.4,1.5,7.3,1.5c2.4,0,4.5-0.4,6.4-1.1C86.5,214.6,88,213.6,89,212.3z"/>
	<path class="st1" d="M120.4,215.7c1.5-0.2,3-0.6,4.6-1.3c1.6-0.7,3.1-1.6,4.3-2.9c1.2-1.3,2.2-2.9,2.9-4.8c0.7-1.9,1.1-4.1,1.1-6.4
		c0-3.2-0.6-6.1-1.9-8.6c-1.3-2.5-3.3-4.5-5.9-5.9c-2.7-1.5-6.4-2.2-11.1-2.2c-1.5,0-4.5,0.1-8.9,0.3l-5.3,0.3v1.1h0.9
		c1.6,0,2.7,0.1,3.2,0.4c0.5,0.3,0.8,0.8,0.9,1.5c0.1,0.8,0.2,2.4,0.2,5v15.5c0,2.7-0.1,4.4-0.2,5.1c-0.1,0.7-0.5,1.3-1,1.6
		c-0.5,0.3-1.5,0.5-2.8,0.5H100v1.1h14.2C116.9,215.9,119,215.8,120.4,215.7z M110.3,212.3c-0.1-0.9-0.2-3-0.2-6.1v-21.4
		c1.2-0.1,2.4-0.1,3.6-0.1c2.5,0,4.5,0.2,6.1,0.7c1.6,0.5,3,1.4,4.3,2.7c1.3,1.3,2.3,3.1,3,5.2c0.7,2.1,1,4.5,1,7.3
		c0,3.5-0.6,6.3-1.8,8.6c-1.2,2.2-2.7,3.8-4.5,4.5c-1.8,0.8-4.1,1.1-6.9,1.1c-1.9,0-3.2-0.2-3.7-0.6
		C110.7,213.9,110.4,213.2,110.3,212.3z"/>
	<path class="st1" d="M141.6,212.5c2.4,2.7,5.3,4,8.8,4c3.1,0,5.5-0.9,7.3-2.6c1.8-1.7,2.7-3.9,2.7-6.7c0-1.7-0.4-3.3-1.1-4.6
		c-0.8-1.3-1.8-2.4-3-3.1c-1.3-0.8-3.3-1.7-6-3c-2.9-1.3-4.9-2.5-6-3.5c-1.1-1-1.7-2.3-1.7-3.8c0-1.2,0.4-2.4,1.3-3.4
		c0.9-1,2.3-1.5,4.2-1.5c2,0,3.8,0.7,5.3,2.1c1.5,1.4,2.6,3.3,3.2,5.8h1v-8.4h-1c-0.1,1-0.5,1.9-1.2,2.8c-1.3-1.4-2.5-2.3-3.7-2.7
		c-1.2-0.4-2.5-0.7-3.8-0.7c-2.4,0-4.4,0.8-6,2.3c-1.6,1.5-2.4,3.4-2.4,5.7c0,1.5,0.4,2.9,1.1,4.2c0.7,1.3,1.8,2.4,3.1,3.2
		c1.3,0.8,3.3,1.8,5.8,2.9c2.9,1.2,4.9,2.4,6,3.5c1.1,1.1,1.6,2.4,1.6,4.1c0,1.6-0.6,3-1.9,4.3c-1.2,1.3-3,1.9-5.2,1.9
		c-5,0-8.2-3.4-9.5-10.1h-1.2v10.3h1.2C140.7,214.2,141.1,213.2,141.6,212.5z"/>
	<path class="st1" d="M182.7,216.5c5.2,0,9.5-1.5,12.7-4.6c3.2-3.1,4.8-7.1,4.8-12.1c0-5.1-1.7-9.2-5-12.1c-3.3-3-7.5-4.4-12.5-4.4
		c-4.9,0-9.1,1.5-12.4,4.5c-3.3,3-5,7-5,11.9c0,5.1,1.6,9.2,4.9,12.2C173.4,215,177.6,216.5,182.7,216.5z M173.7,188.3
		c2.1-2.6,5-3.9,8.9-3.9c3.9,0,6.9,1.3,9,4c2.1,2.7,3.1,6.5,3.1,11.5c0,5.1-1,9-3.1,11.6c-2.1,2.6-5,3.9-8.6,3.9
		c-4.1,0-7.2-1.3-9.3-3.9c-2.1-2.6-3.1-6.5-3.1-11.6C170.7,194.7,171.7,190.9,173.7,188.3z"/>
	<path class="st1" d="M225.8,183.8v1.1c1.3,0,2.3,0.2,3.2,0.5c0.9,0.3,1.5,0.8,1.8,1.3c0.3,0.6,0.4,1.6,0.4,3v19.2l-19-25.1h-9.5
		v1.1c1.7,0,2.8,0.1,3.3,0.4c0.5,0.2,0.9,0.8,1.1,1.6c0.2,0.8,0.3,2.5,0.3,4.9v17c0,1.9-0.1,3.2-0.2,3.7c-0.2,0.5-0.6,1-1.4,1.5
		c-0.8,0.5-2,0.7-3.5,0.8v1.1h12v-1.1c-1.7,0-3-0.2-3.8-0.7c-0.8-0.5-1.4-1-1.5-1.6c-0.2-0.6-0.3-1.8-0.3-3.6v-22.3l22.7,30.1h1
		v-26.5c0-1.4,0.1-2.3,0.3-2.9c0.2-0.6,0.7-1.1,1.5-1.5c0.8-0.4,1.8-0.7,3.2-0.8v-1.1H225.8z"/>
	<path class="st1" d="M56.2,256.3l-11.8-26.5h-9.8v1.1h0.9c1.6,0,2.7,0.1,3.2,0.4c0.5,0.3,0.8,0.8,0.9,1.5c0.2,0.7,0.2,2.4,0.2,4.9
		v14c0,2.7-0.1,4.5-0.3,5.4c-0.2,1-0.7,1.8-1.6,2.5c-0.9,0.7-2,1-3.3,1.1v1.1h11.5v-1.1c-1.5-0.1-2.6-0.5-3.5-1.2
		c-0.8-0.7-1.3-1.5-1.5-2.5c-0.2-0.9-0.2-2.7-0.2-5.3V233l12.8,28.8h1.1L67.7,233v20.4c0,2.7-0.1,4.4-0.2,5.1
		c-0.1,0.7-0.5,1.3-1,1.6c-0.5,0.3-1.5,0.5-2.8,0.5h-1.1v1.1h15.4v-1.1h-1.4c-1.5,0-2.4-0.2-2.9-0.6c-0.5-0.4-0.8-1-1-1.7
		c-0.1-0.8-0.2-2.4-0.2-5v-15.7c0-2.7,0.1-4.4,0.3-5.1c0.2-0.7,0.5-1.2,1-1.5c0.5-0.3,1.5-0.4,3.1-0.4h1.2v-1.1H68L56.2,256.3z"/>
	<path class="st1" d="M97.2,229.1c-4.9,0-9.1,1.5-12.4,4.5c-3.3,3-5,7-5,11.9c0,5.1,1.6,9.2,4.9,12.2c3.3,3.1,7.4,4.6,12.5,4.6
		c5.2,0,9.5-1.5,12.7-4.6c3.2-3.1,4.8-7.1,4.8-12.1c0-5.1-1.7-9.2-5-12.1C106.4,230.6,102.2,229.1,97.2,229.1z M106.2,257.3
		c-2.1,2.6-5,3.9-8.6,3.9c-4.1,0-7.2-1.3-9.3-3.9c-2.1-2.6-3.1-6.5-3.1-11.6c0-5.1,1-8.9,3.1-11.5c2.1-2.6,5-3.9,8.9-3.9
		c3.9,0,6.9,1.3,9,4c2.1,2.7,3.1,6.5,3.1,11.5C109.4,250.9,108.3,254.8,106.2,257.3z"/>
	<path class="st1" d="M137.1,229.1c-4.9,0-9.1,1.5-12.4,4.5c-3.3,3-5,7-5,11.9c0,5.1,1.6,9.2,4.9,12.2c3.3,3.1,7.4,4.6,12.5,4.6
		c5.2,0,9.5-1.5,12.7-4.6c3.2-3.1,4.8-7.1,4.8-12.1c0-5.1-1.7-9.2-5-12.1C146.3,230.6,142.1,229.1,137.1,229.1z M146.1,257.3
		c-2.1,2.6-5,3.9-8.6,3.9c-4.1,0-7.2-1.3-9.3-3.9c-2.1-2.6-3.1-6.5-3.1-11.6c0-5.1,1-8.9,3.1-11.5c2.1-2.6,5-3.9,8.9-3.9
		c3.9,0,6.9,1.3,9,4c2.1,2.7,3.1,6.5,3.1,11.5C149.2,250.9,148.2,254.8,146.1,257.3z"/>
	<path class="st1" d="M182.3,231.6c-2.7-1.5-6.4-2.2-11.1-2.2c-1.5,0-4.5,0.1-8.9,0.3L157,230v1.1h0.9c1.6,0,2.7,0.1,3.2,0.4
		c0.5,0.3,0.8,0.8,0.9,1.5c0.1,0.8,0.2,2.4,0.2,5v15.5c0,2.7-0.1,4.4-0.2,5.1c-0.2,0.7-0.5,1.3-1,1.6c-0.5,0.3-1.5,0.5-2.9,0.5h-1.3
		v1.1h14.2c2.7,0,4.7-0.1,6.2-0.2c1.5-0.2,3-0.6,4.6-1.3c1.6-0.7,3.1-1.7,4.3-2.9c1.2-1.3,2.2-2.9,2.9-4.8c0.7-1.9,1.1-4.1,1.1-6.4
		c0-3.2-0.7-6.1-2-8.6C186.9,235,184.9,233,182.3,231.6z M183.2,255c-1.2,2.2-2.7,3.8-4.5,4.5c-1.8,0.8-4.1,1.1-6.9,1.1
		c-1.9,0-3.1-0.2-3.7-0.6c-0.6-0.4-0.9-1-1.1-1.9c-0.1-0.9-0.2-3-0.2-6.1v-21.4c1.2-0.1,2.4-0.1,3.6-0.1c2.5,0,4.5,0.2,6.1,0.7
		c1.6,0.5,3,1.4,4.3,2.7c1.3,1.3,2.3,3.1,3,5.2c0.7,2.1,1.1,4.5,1.1,7.3C185,249.9,184.4,252.8,183.2,255z"/>
	<path class="st1" d="M213.1,230.8c1.4,0,2.4,0.3,3,0.8c0.6,0.6,0.8,1.2,0.8,1.8c0,0.7-0.5,2-1.6,3.7l-6.3,10.6l-7.7-12.7
		c-0.8-1.3-1.2-2.2-1.2-2.7c0-1.1,1.2-1.7,3.7-1.7v-1.1h-13v1.1c1.4,0,2.3,0.3,2.9,0.8c0.5,0.5,1.6,2.1,3.2,4.7l8,13.1v4
		c0,2.7-0.1,4.4-0.2,5.1c-0.1,0.7-0.5,1.3-1,1.6c-0.5,0.3-1.5,0.5-2.9,0.5h-0.5v1.1H214v-1.1c-1.6,0-2.7-0.2-3.2-0.5
		c-0.5-0.3-0.9-0.8-1.1-1.6c-0.2-0.7-0.2-2.5-0.2-5.2v-4.3l7.2-12c1.4-2.3,2.5-3.9,3.4-4.8c0.9-0.9,2.1-1.4,3.5-1.6v-1.1h-10.5
		V230.8z"/>
</g>
</svg>
