<?xml version="1.0" encoding="utf-8"?>
<!-- Generator: Adobe Illustrator 21.0.2, SVG Export Plug-In . SVG Version: 6.00 Build 0)  -->
<svg version="1.1" id="Layer_1" xmlns="http://www.w3.org/2000/svg" xmlns:xlink="http://www.w3.org/1999/xlink" x="0px" y="0px"
	 viewBox="0 0 205.2 59.5" style="enable-background:new 0 0 205.2 59.5;" xml:space="preserve">
<style type="text/css">
	.st0{fill:#B35A16;}
</style>
<g>
	<g>
		<polygon points="10.3,19.5 10.3,35.2 1.6,19.5 0,19.5 0,36.3 1,36.3 1,20.6 9.9,36.3 11.3,36.3 11.3,19.5 		"/>
	</g>
	<g>
		<polygon points="19.2,20.5 19.2,27.7 25.8,27.7 25.8,28.6 19.2,28.6 19.2,35.4 27.6,35.4 27.6,36.3 18.2,36.3 18.2,19.6 
			27.8,19.6 27.8,20.5 		"/>
	</g>
	<g>
		<polygon points="35.7,19.5 35.7,35.4 43.5,35.4 43.5,36.3 34.7,36.3 34.7,19.5 		"/>
	</g>
	<g>
		<g>
			<path d="M49.2,33.9l0.6-0.7c1.4,2.2,4.7,2.2,4.7,2.2c2.3,0,3.9-1.7,3.9-3.9c0-3.6-4.3-3.6-5.1-3.8c-1.5-0.2-4.2-1-4.2-3.9
				c0-2.4,1.9-4.4,4.6-4.4c1.4,0,2.9,0.6,3.8,1.4l-0.5,0.8c-1-0.9-2-1.3-3.3-1.3c-2.2,0-3.7,1.6-3.7,3.5c0,1.7,1.5,2.9,3.3,3.1
				c2.6,0.3,5.9,1.2,5.9,4.8c0,2.6-2.1,4.6-4.8,4.7C54.5,36.3,50.8,36.3,49.2,33.9"/>
		</g>
		<g>
			<path d="M82.3,27.8c0-4-3.3-7.4-7.2-7.4c-3.9,0-7.2,3.4-7.2,7.4c0,4,3.3,7.4,7.2,7.4C79,35.3,82.3,31.9,82.3,27.8 M83.2,27.8
				c0,4.6-3.6,8.4-8.1,8.4c-4.4,0-8.1-3.8-8.1-8.4c0-4.6,3.6-8.4,8.1-8.4C79.6,19.4,83.2,23.2,83.2,27.8"/>
		</g>
	</g>
	<g>
		<polygon points="101.4,36.3 92.5,20.6 92.5,36.3 91.5,36.3 91.5,19.5 93.1,19.5 101.8,35.2 101.8,19.5 102.9,19.5 102.9,36.3 		
			"/>
	</g>
	<g>
		<g>
			<path d="M115,33.9l0.6-0.7c1.4,2.2,4.7,2.2,4.7,2.2c2.3,0,3.9-1.7,3.9-3.9c0-3.6-4.3-3.6-5.1-3.8c-1.5-0.2-4.2-1-4.2-3.9
				c0-2.4,1.9-4.4,4.6-4.4c1.4,0,2.9,0.6,3.8,1.4l-0.5,0.8c-1-0.9-2-1.3-3.3-1.3c-2.2,0-3.7,1.6-3.7,3.5c0,1.7,1.5,2.9,3.3,3.1
				c2.6,0.3,5.9,1.2,5.9,4.8c0,2.6-2.1,4.6-4.8,4.7C120.3,36.3,116.6,36.3,115,33.9"/>
		</g>
	</g>
	<g>
		<polygon points="146,36.2 146,28.9 140.6,19.5 141.8,19.5 146.5,27.8 151.2,19.5 152.4,19.5 147.1,28.8 147.1,36.2 		"/>
	</g>
	<g>
		<path d="M158.2,31.4h7.8l-3.9-9.3L158.2,31.4z M157.8,32.3l-1.6,4H155l7.1-16.9l7.2,16.9H168l-1.7-4H157.8z"/>
	</g>
	<g>
		<g>
			<path d="M180.5,29.2c2.5,0,4.4-2,4.4-4.4s-2-4.4-4.4-4.4h-3.4v8.9H180.5z M180.6,30.1l-3.5,0v6.2h-0.9V19.4h4.4
				c2.9,0,5.2,2.5,5.2,5.3c0,1.8-0.9,3.5-2.4,4.5l-0.5,0.3l3.1,6.8h-1l-2.9-6.4C181.4,30.1,180.8,30.1,180.6,30.1"/>
		</g>
		<g>
			<path d="M196.8,35.3c4,0,7.4-3.5,7.4-7.5c0-4-3.3-7.4-7.4-7.4h-3.1l0,14.9H196.8z M196.9,36.3h-4.2V19.5h4.2
				c4.6,0.1,8.3,3.8,8.3,8.4C205.2,32.4,201.5,36.2,196.9,36.3"/>
		</g>
	</g>
	<g>
		<polygon points="111.7,17.7 112.5,18.3 110.1,21.6 109.2,21 		"/>
	</g>
</g>
<g>
	<rect x="88.3" class="st0" width="28.7" height="1"/>
</g>
<g>
	<g>
		<path class="st0" d="M114.8,59.5L114.8,59.5c-0.3,0-0.5-0.2-0.5-0.5l0,0c0-0.3,0.2-0.5,0.5-0.5l0,0c0.3,0,0.5,0.2,0.5,0.5l0,0
			C115.2,59.3,115,59.5,114.8,59.5z"/>
		<g>
			<g>
				<path class="st0" d="M52.5,58.5c1.3,0,2.3-1,2.3-2.3c0-1.2-1-2.3-2.3-2.3h-0.8v4.6H52.5z M52.6,59.5h-1.7V53l1.7,0
					c1.8,0,3.2,1.5,3.2,3.2C55.7,58,54.3,59.5,52.6,59.5"/>
			</g>
		</g>
		<g>
			<polygon class="st0" points="58.9,53 58.9,59.5 62.7,59.5 62.7,58.6 59.8,58.6 59.8,56.7 62.1,56.7 62.1,55.9 59.8,55.9 
				59.8,53.9 62.7,53.9 62.7,53 			"/>
		</g>
		<g>
			<polygon class="st0" points="69.7,53 69.7,58 66.9,53 65.9,53 65.9,59.5 66.7,59.5 66.7,54.6 69.6,59.5 70.6,59.5 70.6,53 			"/>
		</g>
		<g>
			<polygon class="st0" points="77.8,53 77.8,58 75,53 73.9,53 73.9,59.5 74.8,59.5 74.8,54.6 77.6,59.5 78.6,59.5 78.6,53 			"/>
		</g>
		<g>
			<rect x="81.8" y="53" class="st0" width="0.9" height="6.4"/>
		</g>
		<g>
			<g>
				<path class="st0" d="M87.8,59.4c-0.8,0-1.5-0.4-1.9-0.9v0l0.4-0.6c0.3,0.4,0.8,0.7,1.6,0.8H88c0.6,0,1.2-0.5,1.2-1.1
					c0-0.6-0.5-0.9-1.2-1c-0.1,0-0.3,0-0.4-0.1c-0.9-0.2-1.7-0.7-1.7-1.7c0-1,0.8-1.8,1.7-1.8h0.1c0.6,0,1.3,0.3,1.7,0.7L89,54.5
					c-0.4-0.4-0.7-0.6-1.2-0.6h-0.1c-0.5,0-0.9,0.4-0.9,0.9c0,0.5,0.3,0.8,0.9,0.8c0.2,0,0.4,0,0.4,0c1.1,0.1,1.9,0.8,1.9,1.9
					c0,1.1-0.9,1.9-1.9,1.9H87.8z"/>
			</g>
			<g>
				<path class="st0" d="M100.5,59.4c-0.8,0-1.5-0.4-1.9-0.9v0l0.4-0.6c0.3,0.4,0.8,0.7,1.6,0.8h0.2c0.6,0,1.2-0.5,1.2-1.1
					c0-0.6-0.5-0.9-1.2-1c-0.1,0-0.3,0-0.4-0.1c-0.9-0.2-1.7-0.7-1.7-1.7c0-1,0.8-1.8,1.7-1.8h0.1c0.6,0,1.3,0.3,1.7,0.7l-0.4,0.8
					c-0.4-0.4-0.7-0.6-1.2-0.6h-0.1c-0.5,0-0.9,0.4-0.9,0.9c0,0.5,0.3,0.8,0.9,0.8c0.2,0,0.4,0,0.4,0c1.1,0.1,1.9,0.8,1.9,1.9
					c0,1.1-0.9,1.9-1.9,1.9H100.5z"/>
			</g>
		</g>
		<g>
			<polygon class="st0" points="106,53 106,53.9 108.2,53.9 108.1,59.5 109.1,59.5 109,53.9 111.2,53.9 111.2,53 			"/>
		</g>
		<g>
			<polygon class="st0" points="127.8,53 126.2,55.8 124.7,53 123.7,53 125.8,56.7 125.8,59.5 126.7,59.5 126.7,56.7 128.8,53 			
				"/>
		</g>
		<g>
			<g>
				<path class="st0" d="M137.5,56.2c0-1.3-1-2.3-2.2-2.3c-1.2,0-2.2,1-2.2,2.3c0,1.3,1,2.3,2.2,2.3
					C136.6,58.6,137.5,57.5,137.5,56.2 M138.4,56.2c0,1.8-1.3,3.2-3.1,3.2c-1.7,0-3-1.4-3-3.2c0-1.8,1.4-3.2,3-3.2
					C137.1,53,138.4,54.5,138.4,56.2"/>
			</g>
			<g>
				<path class="st0" d="M145.4,55.2c0-0.7-0.6-1.3-1.3-1.3h-0.9v2.6h0.9C144.9,56.5,145.4,55.9,145.4,55.2 M146.6,59.4l-1,0l0,0
					l-1.1-2.1c-0.1,0-0.2,0-0.3,0l0,0h-1v2.1h-0.9l0-6.4h1.4h0.4c1.2,0,2.1,1,2.1,2.2c0,0.7-0.4,1.4-1,1.8L146.6,59.4z"/>
			</g>
		</g>
		<g>
			<polygon class="st0" points="153.3,53 150.7,57.8 150.7,53 149.9,53 149.9,59.5 150.7,59.5 151.8,57.7 153.3,59.5 154.3,59.5 
				152.2,56.8 154.4,53 			"/>
		</g>
	</g>
	<circle class="st0" cx="114.8" cy="59" r="0.5"/>
</g>
</svg>
