<?xml version="1.0" encoding="utf-8"?>
<!-- Generator: Adobe Illustrator 21.0.2, SVG Export Plug-In . SVG Version: 6.00 Build 0)  -->
<svg version="1.1" id="Capa_1" xmlns="http://www.w3.org/2000/svg" xmlns:xlink="http://www.w3.org/1999/xlink" height="64" width="64"
	 viewBox="0 0 58 69" style="enable-background:new 0 0 58 69;" xml:space="preserve">
<style type="text/css">
	.st0{fill:#99513D;}
</style>
<g>
	<path class="st0" d="M29,0C13,0,0,11.4,0,25.4c0,3.7,0.8,7.1,2.5,10.4c7.2,13.9,21.2,28.6,25.2,32.7c0.3,0.3,0.8,0.5,1.2,0.5
		s0.9-0.2,1.2-0.5c4.1-4.2,18-18.8,25.2-32.7c1.7-3.2,2.5-6.7,2.5-10.4C58,11.4,45,0,29,0z M29,38.6c-8.3,0-15.1-5.9-15.1-13.2
		S20.7,12.2,29,12.2s15.1,5.9,15.1,13.2S37.3,38.6,29,38.6z"/>
</g>
</svg>
