<?xml version="1.0" encoding="utf-8"?>
<!-- Generator: Adobe Illustrator 21.0.2, SVG Export Plug-In . SVG Version: 6.00 Build 0)  -->
<svg version="1.1" id="Layer_1" xmlns="http://www.w3.org/2000/svg" xmlns:xlink="http://www.w3.org/1999/xlink" x="0px" y="0px"
	 viewBox="0 0 168.9 100.2" style="enable-background:new 0 0 168.9 100.2;" xml:space="preserve">
<style type="text/css">
	.st0{fill:#522B78;}
</style>
<g>
	<polygon class="st0" points="84.5,18.4 86.9,18.4 85.7,9.2 84.5,0 83.3,9.2 82.1,18.4 	"/>
	<polygon class="st0" points="61.6,65.4 63.9,65.4 62.8,56.2 61.6,47.1 60.4,56.2 59.2,65.4 	"/>
	<polygon class="st0" points="107.4,65.4 109.8,65.4 108.6,56.2 107.4,47.1 106.2,56.2 105,65.4 	"/>
	<polygon class="st0" points="67.6,37.5 66.4,28.3 65.2,37.5 64,46.7 66.4,46.7 68.2,46.7 68.5,44.3 	"/>
	<polygon class="st0" points="67.5,51.7 68,48 64,48 64,60.3 64.7,65.4 64.7,68.8 64,68.8 64,68.8 68.8,68.8 68.8,68.8 67.5,68.8 	
		"/>
	<rect x="68.3" y="53" class="st0" width="4.8" height="15.8"/>
	<polygon class="st0" points="70.7,51.7 73.1,51.7 71.9,42.5 70.7,33.3 69.5,42.5 68.3,51.7 	"/>
	<polygon class="st0" points="76.5,18.3 75.3,9.1 74.2,18.3 73,27.5 75.3,27.5 77.5,27.5 77.6,26.6 	"/>
	<polygon class="st0" points="76.8,32.8 77.3,28.8 73,28.8 73,45 73.8,51.7 73.8,68.8 73,68.8 73,68.9 77.7,68.9 77.7,68.9 
		76.8,68.9 	"/>
	<polygon class="st0" points="79.9,32.8 82.3,32.8 81.1,23.6 79.9,14.4 78.7,23.6 77.6,32.8 	"/>
	<polygon class="st0" points="96,27.5 94.8,18.3 93.6,9.1 92.4,18.3 91.3,26.6 91.5,27.5 93.6,27.5 	"/>
	<polygon class="st0" points="89,32.8 91.4,32.8 90.2,23.6 89,14.4 87.8,23.6 86.6,32.8 	"/>
	<polygon class="st0" points="95.1,51.7 96,45 96,28.8 91.6,28.8 92.2,32.8 92.2,68.8 91.2,68.8 91.2,68.9 96,68.9 96,68.8 
		95.1,68.8 	"/>
	<polygon class="st0" points="104.9,46.7 103.7,37.5 102.5,28.3 101.3,37.5 100.4,44.3 100.8,46.7 102.5,46.7 	"/>
	<rect x="95.9" y="53" class="st0" width="4.8" height="15.9"/>
	<polygon class="st0" points="98.3,51.7 100.6,51.7 99.4,42.5 98.3,33.3 97.1,42.5 95.9,51.7 	"/>
	<polygon class="st0" points="104.9,60.3 104.9,48 100.9,48 101.4,51.7 101.4,68.8 100.1,68.8 100.1,68.9 104.2,68.9 104.2,65.4 	
		"/>
	<g>
		<path class="st0" d="M85.8,53.9V32.8l1-7.6v-5.5h-4.8v5.5l1,7.6v21.1c0.8-0.5,1.4-0.7,1.4-0.7S85.1,53.4,85.8,53.9"/>
		<path class="st0" d="M91.4,34.2h-4.8v20.4c1.1,1.1,2.2,2.9,2.2,5.8v8.5h2.6V34.2z"/>
		<path class="st0" d="M82.3,54.6V34.2h-4.8v34.7h2.6v-8.5C80.2,57.4,81.3,55.6,82.3,54.6"/>
		<path class="st0" d="M41.7,79.6c-2.4,0-3.5,2.1-3.5,4.3c0,2.1,1.2,4.3,3.5,4.3c2.3,0,3.5-2.1,3.5-4.3
			C45.2,81.7,44.1,79.6,41.7,79.6"/>
		<path class="st0" d="M146.5,79.9c-2.2-0.1-3.7,1.5-3.7,3.6v5.3h-1.2v-10h1.1v2.4h0c0.6-1.6,2-2.6,3.8-2.5V79.9z M138.3,84.2h-7.7
			c0,1.8,1,3.9,3.3,3.9c1.8,0,2.8-1,3.1-2.6h1.2c-0.5,2.3-1.8,3.6-4.4,3.6c-3.2,0-4.5-2.4-4.5-5.3c0-2.6,1.3-5.3,4.5-5.3
			C137.1,78.5,138.4,81.3,138.3,84.2 M126.6,79.9h-2v6.8c0,0.8,0.1,1.3,1,1.3c0.3,0,0.7,0,1-0.1v1c-0.4,0-0.7,0-1.1,0
			c-1.6,0-2.2-0.5-2.2-2.3v-6.9h-1.7v-1h1.7v-3h1.2v3h2V79.9z M115.2,89.1c-2.3,0-3.9-1.1-4.1-3.5h1.2c0.1,1.7,1.3,2.5,3,2.5
			c1.1,0,2.7-0.5,2.7-1.9c0-1.2-1.1-1.6-2.2-1.8l-1.6-0.3c-1.6-0.4-2.8-1-2.8-2.7c0-2,2-2.8,3.8-2.8c2,0,3.6,1,3.7,3.2h-1.2
			c-0.1-1.5-1.2-2.2-2.6-2.2c-1.1,0-2.4,0.4-2.4,1.7c0,1.1,1.2,1.5,2.1,1.7l1.6,0.4c1.4,0.2,2.9,1,2.9,2.8
			C119.3,88.3,117.1,89.1,115.2,89.1 M107.8,88.8h-1.2v-6.3c0-1.7-0.6-3-2.5-3c-1.9,0-3.1,1.5-3.1,3.4v5.8h-1.2v-10h1.2v1.7h0
			c0.4-1.2,1.8-2,3.2-2c2.8,0,3.7,1.5,3.7,3.9V88.8z M95.8,76.9h-1.2v-2h1.2V76.9z M95.8,88.8h-1.2v-10h1.2V88.8z M90.7,88.8h-1.2
			v-6.7c0-1.7-0.6-2.5-2.4-2.5c-2.1,0-2.7,1.7-2.7,3.6v5.7h-1.2V82c0-1.4-0.5-2.5-2.1-2.5c-2.1,0-3,1.6-3,3.7v5.6h-1.2v-10h1.1v1.7
			H78c0.6-1.2,1.7-2,3.3-2c1.3,0,2.5,0.6,2.9,2c0.6-1.3,1.9-2,3.2-2c2.2,0,3.3,1.1,3.3,3.5V88.8z M72.9,88.8h-1.2v-6.3
			c0-1.7-0.6-3-2.5-3c-1.9,0-3.1,1.5-3.1,3.4v5.8h-1.2V75H66v5.6h0c0.4-1.2,1.8-2,3.2-2c2.8,0,3.7,1.5,3.7,3.9V88.8z M61.5,79.9h-2
			v6.8c0,0.8,0.1,1.3,1,1.3c0.3,0,0.7,0,1-0.1v1c-0.4,0-0.7,0-1.1,0c-1.6,0-2.2-0.5-2.2-2.3v-6.9h-1.7v-1h1.7v-3h1.2v3h2V79.9z
			 M54.8,79.9c-2.2-0.1-3.7,1.5-3.7,3.6v5.3h-1.2v-10H51v2.4h0c0.6-1.6,2-2.6,3.8-2.5V79.9z M41.7,89.1c-3.1,0-4.7-2.4-4.7-5.3
			c0-2.9,1.7-5.3,4.7-5.3c3.1,0,4.7,2.4,4.7,5.3C46.5,86.7,44.8,89.1,41.7,89.1 M33.4,88.8h-1.5l-8.1-11.7h0v11.7h-1.3V75h1.5
			L32,86.7h0V75h1.3V88.8z M0,100.2h168.9V63.9H0V100.2z"/>
		<path class="st0" d="M133.9,79.6c-2,0-3.1,1.7-3.3,3.6h6.5C137,81.3,135.9,79.6,133.9,79.6"/>
	</g>
</g>
</svg>
